<svg width="37" height="43" viewBox="0 0 37 43" fill="none" xmlns="http://www.w3.org/2000/svg">
<g clip-path="url(#clip0_2_140)">
<path d="M30.5222 29.7411C24.7991 30.3106 20.139 34.4794 18.8531 39.945C18.6224 40.9261 18.5 41.9487 18.5 43C18.5 41.9487 18.3776 40.9261 18.1469 39.945C16.861 34.4794 12.2009 30.3106 6.47781 29.7411C7.68418 29.6787 8.68937 28.8595 9.02491 27.75C9.02913 27.7374 9.03264 27.7255 9.03616 27.7128C9.1065 27.4667 9.14449 27.2072 9.14449 26.9393C9.14449 26.9161 9.14449 26.8923 9.14378 26.8691C9.14097 26.7618 9.13253 26.6559 9.11776 26.5521C9.10861 26.4862 9.09736 26.421 9.08329 26.3564C9.05937 26.2449 9.02913 26.1355 8.99255 26.0289C8.87297 25.6789 8.68515 25.3612 8.44599 25.0891C8.42067 25.0611 8.39464 25.033 8.36861 25.005C8.34259 24.9776 8.31586 24.951 8.28842 24.925C8.26099 24.8977 8.23285 24.8717 8.20331 24.8458C8.17447 24.8198 8.14492 24.7946 8.11538 24.7707C8.05559 24.7216 7.99369 24.6746 7.92968 24.6311C7.86637 24.587 7.80025 24.5456 7.73272 24.507C7.70669 24.4916 7.67926 24.4768 7.65253 24.4628C7.57656 24.4221 7.49848 24.3843 7.41759 24.3513C7.34795 24.3218 7.2762 24.2952 7.20375 24.2721C7.12637 24.2461 0 22.0299 0 22.0299C0 22.0299 4.38021 21.3313 8.66194 18.5933C11.5572 16.7417 14.4082 13.9581 15.827 9.82651C15.3079 12.803 13.6042 16.006 12.3697 18.5933C11.5973 20.212 11.0086 21.5901 11.0086 22.5208C11.0086 23.8393 11.3511 25.0779 11.9533 26.1531L11.9582 26.2351V28.2269C12.625 28.5418 13.2665 28.9051 13.8694 29.3105C16.5719 31.1249 18.5 33.7893 18.5 36.8282C18.5 33.1111 21.384 29.955 25.0418 28.2269V26.2351L25.0467 26.1531C25.6489 25.0779 25.9914 23.8393 25.9914 22.5208C25.9914 20.1026 22.0171 14.6658 21.173 9.82651C24.6901 20.0661 37 22.0299 37 22.0299C37 22.0299 29.8736 24.2461 29.7963 24.2721C29.7238 24.2952 29.6521 24.3218 29.5824 24.3513C29.5015 24.3843 29.4234 24.4221 29.3475 24.4628C29.3207 24.4768 29.2933 24.4916 29.2673 24.507C29.1998 24.5456 29.1336 24.587 29.0703 24.6311C29.0063 24.6746 28.9444 24.7216 28.8846 24.7707C28.8551 24.7946 28.8255 24.8198 28.7967 24.8458C28.7671 24.8717 28.739 24.8977 28.7116 24.925C28.6841 24.951 28.6574 24.9776 28.6314 25.005C28.6054 25.033 28.5793 25.0611 28.554 25.0891C28.2417 25.444 28.018 25.8774 27.9167 26.3564C27.9026 26.421 27.8914 26.4862 27.8822 26.5521C27.8647 26.6784 27.8555 26.8081 27.8555 26.9393C27.8555 27.2072 27.8935 27.4667 27.9638 27.7128C27.9674 27.7255 27.9709 27.7374 27.9751 27.75C28.3106 28.8595 29.3158 29.6787 30.5222 29.7411Z" fill="white"/>
<path d="M24.5494 24.6248C24.5494 24.6248 23.9536 24.9643 23.1341 25.5408C21.7547 26.5114 19.7408 28.1547 18.8693 29.981C18.6969 30.3401 18.5696 30.7069 18.5 31.0772C18.4304 30.7069 18.303 30.3401 18.1307 29.981C17.2592 28.1547 15.2453 26.5114 13.8658 25.5408C13.0464 24.9643 12.4506 24.6248 12.4506 24.6248C12.4506 24.6248 12.6841 24.0546 13.059 23.0552C13.6513 21.4772 14.5974 18.8275 15.5372 15.6589C16.925 10.9788 18.2995 5.16609 18.5 0C18.7005 5.16609 20.075 10.9788 21.4628 15.6589C22.4026 18.8275 23.3487 21.4772 23.941 23.0552C24.3159 24.0546 24.5494 24.6248 24.5494 24.6248Z" fill="white"/>
<path d="M15.9367 29.7084C15.7377 29.9581 14.952 29.7631 13.8694 29.3108C12.5589 28.7637 10.813 27.8394 9.1438 26.8694C7.44574 25.8833 5.82787 24.8502 4.82971 24.1201C4.89091 24.1496 6.8408 25.0838 8.99256 26.0292C9.99424 26.4696 11.0395 26.9122 11.9582 27.2678C13.1632 27.7335 14.1515 28.0491 14.5412 28.0126C14.5412 28.0126 15.1982 28.2111 14.7029 26.1596C14.6453 25.9205 14.5714 25.6505 14.4793 25.3454C14.5827 25.5004 14.8661 25.9598 15.1672 26.5314C15.7461 27.6297 16.3876 29.1432 15.9367 29.7084Z" fill="#F74E4E"/>
<path d="M22.5208 25.3451C22.2176 25.7975 20.3775 28.849 21.0633 29.7082C21.7491 30.5673 29.3834 26.1587 32.171 24.1192C32.171 24.1192 23.794 28.1386 22.4582 28.0123C22.4582 28.0123 21.6387 28.2599 22.5201 25.3451H22.5208Z" fill="#F74E4E"/>
</g>
<defs>
<clipPath id="clip0_2_140">
<rect width="37" height="43" fill="white"/>
</clipPath>
</defs>
</svg>
